<svg width="304" height="103" viewBox="0 0 304 103" fill="none" xmlns="http://www.w3.org/2000/svg">
<rect width="264" height="47" transform="translate(0 30)" fill="#5137B0"/>
<path d="M53.616 61V37.768H53.648L64.848 53.672L64.176 53.576L75.344 37.768H75.376V61H73.84V41.384L73.968 42.152L64.496 55.496H64.432L54.896 42.152L55.152 41.448V61H53.616ZM80.632 54.664C80.632 53.448 80.92 52.3387 81.496 51.336C82.0933 50.3333 82.8933 49.544 83.896 48.968C84.92 48.3707 86.0613 48.072 87.32 48.072C88.6 48.072 89.7413 48.3707 90.744 48.968C91.7467 49.544 92.536 50.3333 93.112 51.336C93.688 52.3387 93.976 53.448 93.976 54.664C93.976 55.88 93.688 56.9893 93.112 57.992C92.536 58.9947 91.736 59.7947 90.712 60.392C89.7093 60.968 88.5787 61.256 87.32 61.256C86.04 61.256 84.8987 60.9787 83.896 60.424C82.8933 59.848 82.0933 59.0693 81.496 58.088C80.92 57.0853 80.632 55.944 80.632 54.664ZM82.136 54.696C82.136 55.6773 82.36 56.5733 82.808 57.384C83.2773 58.1733 83.896 58.8027 84.664 59.272C85.4533 59.7413 86.328 59.976 87.288 59.976C88.248 59.976 89.112 59.7413 89.88 59.272C90.6693 58.8027 91.288 58.1733 91.736 57.384C92.2053 56.5733 92.44 55.6773 92.44 54.696C92.44 53.7147 92.2053 52.8293 91.736 52.04C91.288 51.2293 90.6693 50.5893 89.88 50.12C89.112 49.6293 88.248 49.384 87.288 49.384C86.3067 49.384 85.4213 49.64 84.632 50.152C83.864 50.6427 83.256 51.2933 82.808 52.104C82.36 52.9147 82.136 53.7787 82.136 54.696ZM102.482 61.48L96.146 48.488H97.906L103.122 59.848L102.194 59.816L107.218 48.488H108.882L102.674 61.48H102.482ZM112.629 48.488H114.133V61H112.629V48.488ZM112.309 43.88C112.309 43.5813 112.427 43.336 112.661 43.144C112.896 42.9307 113.152 42.824 113.429 42.824C113.728 42.824 113.984 42.9307 114.197 43.144C114.411 43.336 114.517 43.5813 114.517 43.88C114.517 44.2 114.411 44.4667 114.197 44.68C113.984 44.872 113.728 44.968 113.429 44.968C113.152 44.968 112.896 44.8613 112.661 44.648C112.427 44.4347 112.309 44.1787 112.309 43.88ZM125.257 61.256C123.955 61.256 122.803 60.968 121.801 60.392C120.798 59.816 120.009 59.0373 119.433 58.056C118.878 57.0533 118.601 55.9333 118.601 54.696C118.601 53.48 118.899 52.3707 119.497 51.368C120.094 50.3653 120.894 49.5653 121.897 48.968C122.921 48.3707 124.051 48.072 125.289 48.072C126.782 48.072 128.03 48.5093 129.033 49.384C130.057 50.2587 130.793 51.4 131.241 52.808L120.297 57.032L119.849 55.944L129.865 52.04L129.545 52.488C129.182 51.6347 128.627 50.8987 127.881 50.28C127.155 49.6613 126.259 49.352 125.193 49.352C124.233 49.352 123.369 49.5867 122.601 50.056C121.833 50.5253 121.214 51.1547 120.745 51.944C120.297 52.7333 120.073 53.6293 120.073 54.632C120.073 55.5707 120.286 56.4453 120.713 57.256C121.161 58.0667 121.779 58.7173 122.569 59.208C123.358 59.6987 124.265 59.944 125.289 59.944C125.971 59.944 126.622 59.816 127.241 59.56C127.881 59.304 128.446 58.9733 128.937 58.568L129.705 59.656C129.107 60.1253 128.414 60.5093 127.625 60.808C126.857 61.1067 126.067 61.256 125.257 61.256ZM144.007 61L153.607 37.288H153.735L163.335 61H161.575L153.223 39.784L154.311 39.176L145.575 61H144.007ZM148.647 52.008H158.727L159.175 53.48H148.263L148.647 52.008ZM174.729 61.256C173.534 61.256 172.414 60.9467 171.369 60.328C170.323 59.688 169.555 58.8667 169.065 57.864L169.321 57.32V67.016H167.817V48.392H169.161L169.321 52.488L169.033 51.56C169.587 50.5573 170.398 49.736 171.465 49.096C172.531 48.4347 173.694 48.104 174.953 48.104C176.147 48.104 177.225 48.392 178.185 48.968C179.145 49.544 179.902 50.3333 180.457 51.336C181.033 52.3173 181.321 53.448 181.321 54.728C181.321 55.9867 181.022 57.1173 180.425 58.12C179.849 59.1013 179.059 59.8693 178.057 60.424C177.075 60.9787 175.966 61.256 174.729 61.256ZM174.473 60.008C175.454 60.008 176.339 59.7733 177.129 59.304C177.939 58.8347 178.579 58.2053 179.049 57.416C179.539 56.6053 179.785 55.7093 179.785 54.728C179.785 53.7253 179.55 52.8293 179.081 52.04C178.611 51.2293 177.982 50.5893 177.193 50.12C176.425 49.6507 175.55 49.416 174.569 49.416C173.63 49.416 172.777 49.6293 172.009 50.056C171.241 50.4827 170.622 51.0587 170.153 51.784C169.683 52.5093 169.406 53.3307 169.321 54.248V55.272C169.385 56.1467 169.651 56.9467 170.121 57.672C170.611 58.3973 171.23 58.9733 171.977 59.4C172.745 59.8053 173.577 60.008 174.473 60.008ZM192.698 61.256C191.503 61.256 190.383 60.9467 189.338 60.328C188.292 59.688 187.524 58.8667 187.034 57.864L187.29 57.32V67.016H185.786V48.392H187.13L187.29 52.488L187.002 51.56C187.556 50.5573 188.367 49.736 189.434 49.096C190.5 48.4347 191.663 48.104 192.922 48.104C194.116 48.104 195.194 48.392 196.154 48.968C197.114 49.544 197.871 50.3333 198.426 51.336C199.002 52.3173 199.29 53.448 199.29 54.728C199.29 55.9867 198.991 57.1173 198.394 58.12C197.818 59.1013 197.028 59.8693 196.026 60.424C195.044 60.9787 193.935 61.256 192.698 61.256ZM192.442 60.008C193.423 60.008 194.308 59.7733 195.098 59.304C195.908 58.8347 196.548 58.2053 197.018 57.416C197.508 56.6053 197.754 55.7093 197.754 54.728C197.754 53.7253 197.519 52.8293 197.05 52.04C196.58 51.2293 195.951 50.5893 195.162 50.12C194.394 49.6507 193.519 49.416 192.538 49.416C191.599 49.416 190.746 49.6293 189.978 50.056C189.21 50.4827 188.591 51.0587 188.122 51.784C187.652 52.5093 187.375 53.3307 187.29 54.248V55.272C187.354 56.1467 187.62 56.9467 188.09 57.672C188.58 58.3973 189.199 58.9733 189.946 59.4C190.714 59.8053 191.546 60.008 192.442 60.008Z" fill="white"/>
<path d="M234.5 52H292.5L283 103H244L234.5 52Z" fill="#35256F"/>
<circle cx="234.5" cy="52.5" r="10.5" fill="#F5CE4C"/>
<circle cx="243.5" cy="37.5" r="10.5" fill="#F5CE4C"/>
<circle cx="252.5" cy="23.5" r="10.5" fill="#F5CE4C"/>
<circle cx="273.5" cy="23.5" r="10.5" fill="#F5CE4C"/>
<circle cx="262.5" cy="10.5" r="10.5" fill="#F5CE4C"/>
<circle cx="263.5" cy="37.5" r="10.5" fill="#F5CE4C"/>
<circle cx="283.5" cy="37.5" r="10.5" fill="#F5CE4C"/>
<circle cx="254.5" cy="52.5" r="10.5" fill="#F5CE4C"/>
<circle cx="274.5" cy="52.5" r="10.5" fill="#F5CE4C"/>
<circle cx="293.5" cy="52.5" r="10.5" fill="#F5CE4C"/>
</svg>
