<svg width="25" height="25" viewBox="0 0 25 25" fill="none" xmlns="http://www.w3.org/2000/svg">
<path d="M24.6673 23.0602L18.2182 16.6111C19.6692 14.8001 20.4582 12.5478 20.4545 10.2273C20.4545 4.57897 15.8758 0 10.2273 0C4.57897 0 0 4.57897 0 10.2273C0 15.8755 4.57897 20.4545 10.2273 20.4545C12.642 20.4545 14.8613 19.6176 16.6111 18.2179L23.0602 24.667C23.1656 24.7727 23.2908 24.8565 23.4287 24.9136C23.5665 24.9708 23.7144 25.0001 23.8636 25C24.0883 25 24.308 24.9333 24.4949 24.8085C24.6818 24.6836 24.8274 24.5062 24.9135 24.2986C24.9995 24.0909 25.022 23.8625 24.9782 23.642C24.9344 23.4216 24.8262 23.2191 24.6673 23.0602ZM10.2273 18.1818C5.83408 18.1818 2.27272 14.6204 2.27272 10.2273C2.27272 5.83408 5.83408 2.27272 10.2273 2.27272C14.6207 2.27272 18.1818 5.83408 18.1818 10.2273C18.1818 14.6204 14.6207 18.1818 10.2273 18.1818Z" fill="black"/>
</svg>
