<svg viewBox="0 0 40 41" fill="none" xmlns="http://www.w3.org/2000/svg">
<path d="M27.4268 21.5368C29.3973 19.9865 30.8356 17.8606 31.5415 15.4548C32.2475 13.049 32.1861 10.483 31.3658 8.1138C30.5455 5.74456 29.0071 3.68991 26.9647 2.23569C24.9223 0.781469 22.4774 0 19.9702 0C17.463 0 15.0181 0.781469 12.9757 2.23569C10.9333 3.68991 9.39492 5.74456 8.57462 8.1138C7.75433 10.483 7.69289 13.049 8.39885 15.4548C9.10482 17.8606 10.5431 19.9865 12.5136 21.5368C9.13712 22.8895 6.19106 25.1332 3.98945 28.0285C1.78784 30.9239 0.41322 34.3624 0.0121232 37.9776C-0.0169102 38.2415 0.00632785 38.5086 0.0805101 38.7636C0.154692 39.0185 0.278366 39.2564 0.444471 39.4636C0.779934 39.8819 1.26786 40.1499 1.80091 40.2086C2.33397 40.2672 2.86848 40.1117 3.28686 39.7762C3.70525 39.4408 3.97324 38.9528 4.03188 38.4198C4.47321 34.4909 6.34662 30.8623 9.29417 28.2273C12.2417 25.5923 16.0568 24.1356 20.0104 24.1356C23.964 24.1356 27.7791 25.5923 30.7266 28.2273C33.6742 30.8623 35.5476 34.4909 35.9889 38.4198C36.0435 38.9136 36.2792 39.3698 36.6504 39.7001C37.0215 40.0304 37.5019 40.2116 37.9988 40.2086H38.2199C38.7467 40.1479 39.2283 39.8815 39.5596 39.4674C39.8909 39.0533 40.0451 38.525 39.9885 37.9977C39.5856 34.3723 38.2035 30.9249 35.9906 28.0251C33.7777 25.1253 30.8173 22.8824 27.4268 21.5368ZM19.9702 20.1098C18.3801 20.1098 16.8258 19.6383 15.5037 18.7549C14.1816 17.8715 13.1511 16.6159 12.5427 15.1469C11.9342 13.6779 11.775 12.0614 12.0852 10.5019C12.3954 8.94236 13.1611 7.50986 14.2854 6.38551C15.4097 5.26117 16.8423 4.49548 18.4018 4.18527C19.9613 3.87507 21.5777 4.03428 23.0468 4.64277C24.5158 5.25126 25.7714 6.2817 26.6548 7.60379C27.5382 8.92588 28.0097 10.4802 28.0097 12.0703C28.0097 14.2025 27.1627 16.2474 25.655 17.7551C24.1473 19.2628 22.1024 20.1098 19.9702 20.1098Z" fill="black"/>
</svg>
